<svg width="410" height="508" viewBox="0 0 410 508" fill="none" xmlns="http://www.w3.org/2000/svg">
<path fill-rule="evenodd" clip-rule="evenodd" d="M121.167 329.335C119.549 309.826 113.312 290.045 100.702 275.066C78.6973 248.926 38.3204 241.467 21.9506 211.477C3.45166 177.586 -4.83478 135.977 4.31543 98.4801C13.8963 59.2186 32.9845 -0.578526 73.3829 0.710429C129.702 2.50734 151.682 83.632 203.893 104.848C226.75 114.136 248.602 81.652 273.267 81.9324C300.55 82.2425 332.108 86.1501 350.282 106.512C368.579 127.012 357.046 160.455 366.408 186.287C376.061 212.92 423.002 237.626 406.012 260.278C382.439 291.71 309.548 249.819 292.286 285.115C271.711 327.186 349.282 377.267 328.316 419.145C313.76 448.221 263.548 390.764 233.354 402.832C185.921 421.791 162.321 530.583 119.573 502.578C70.6413 470.521 126.002 387.621 121.167 329.335Z" fill="#6A6D06"/>
</svg>
