<svg width="146" height="51" viewBox="0 0 146 51" fill="none" xmlns="http://www.w3.org/2000/svg">
<path fill-rule="evenodd" clip-rule="evenodd" d="M131.258 41.258C129.202 41.258 127.236 41.629 125.415 42.304C124.592 41.398 123.405 40.83 122.085 40.83C121.469 40.83 120.884 40.952 120.35 41.177C120.056 37.305 116.821 34.254 112.874 34.254C111.16 34.254 109.582 34.831 108.32 35.798C107.51 34.687 106.2 33.963 104.721 33.963C104.473 33.963 104.231 33.983 103.995 34.022C104.495 32.855 104.773 31.569 104.773 30.218C104.773 24.875 100.44 20.542 95.0963 20.542C94.1013 20.542 93.1403 20.691 92.2383 20.972C91.5363 19.477 90.0173 18.441 88.2563 18.441L88.1273 18.442C88.1473 18.095 88.1593 17.743 88.1593 17.389C88.1593 7.78501 80.3753 0 70.7703 0C61.1663 0 53.3813 7.78501 53.3813 17.389C53.3813 17.523 53.3833 17.657 53.3883 17.79C52.5483 17.578 51.6703 17.465 50.7633 17.465C48.9643 17.465 47.2703 17.911 45.7823 18.699C43.2473 15.239 39.1593 12.994 34.5423 12.994C26.8473 12.994 20.6123 19.228 20.6123 26.923C20.6123 28.437 20.8553 29.892 21.3013 31.254C21.1613 31.247 21.0193 31.241 20.8783 31.241C17.0883 31.241 14.0203 34.311 14.0203 38.101C14.0203 38.546 14.0633 38.981 14.1433 39.402C14.0953 39.4 14.0483 39.4 14.0003 39.4C11.8603 39.4 10.1163 41.099 10.0473 43.223C9.45331 43.11 8.83931 43.049 8.21231 43.049C5.73831 43.049 3.4253 43.909 1.7593 45.485C-2.6967 49.701 2.1683 50.796 6.8553 50.796H12.9693H17.7673H116.121H123.799H136.41C141.298 50.796 148.277 51.596 143.428 46.485C140.372 43.266 136.047 41.258 131.258 41.258Z" fill="white"/>
</svg>
